
Complete name                    : The.Shining.1980.avi
Format                           : AVI
File size                        : 1.37 GiB
Duration                         : 1h 54mn
Overall bit rate                 : 1 710 Kbps

Video

Format                           : MPEG-4 Visual
Codec ID/Hint                    : XviD
Duration                         : 1h 54mn
Bit rate                         : 1 315 Kbps
Width                            : 718 pixels
Height                           : 576 pixels
Display aspect ratio             : 16:9
Stream size                      : 1.05 GiB (77%)
Writing library                  : XviD 1.1.2 (UTC 2006-11-01)

Audio

Format                           : AC-3
Duration                         : 1h 54mn
Bit rate                         : 384 Kbps
Channel(s)                       : 6 channels
Channel positions                : Front: L C R, Side: L R, LFE
Sampling rate                    : 48.0 KHz
Bit depth                        : 16 bits
Stream size                      : 315 MiB (22%)
Language                         : English


Text #1
Language                         : English

Text #2
Language                         : Swedish

Text #3
Language                         : Norwegian

Text #4
Language                         : Danish

Text #5
Language                         : Finnish

Text #6
Language                         : Icelandic